<?xml version="1.0" standalone="no"?><!DOCTYPE svg PUBLIC "-//W3C//DTD SVG 1.1//EN" "http://www.w3.org/Graphics/SVG/1.1/DTD/svg11.dtd"><svg t="1744882088829" class="icon" viewBox="0 0 1104 1024" version="1.1" xmlns="http://www.w3.org/2000/svg" p-id="3579" xmlns:xlink="http://www.w3.org/1999/xlink" width="215.625" height="200"><path d="M914.285714 585.142857v157.257143l-36.571428 25.6-73.142857-146.285714h-120.685715c-14.628571-21.942857-36.571429-36.571429-62.171428-36.571429h-146.285715c-40.228571 0-73.142857 32.914286-73.142857 73.142857v365.714286H219.428571c-21.942857 0-36.571429-14.628571-36.571428-36.571429V585.142857H10.971429c-14.628571-14.628571-14.628571-36.571429 0-51.2L522.971429 10.971429c14.628571-14.628571 36.571429-14.628571 51.2 0l512 522.971428c14.628571 14.628571 14.628571 36.571429 0 51.2H914.285714z m-347.428571 329.142857c3.657143 0 10.971429 0 14.628571 3.657143l84.114286-146.285714c-10.971429-29.257143 0-58.514286 29.257143-73.142857 29.257143-10.971429 58.514286 0 73.142857 29.257143 3.657143 7.314286 3.657143 14.628571 3.657143 21.942857 0 10.971429-3.657143 18.285714-7.314286 29.257143l106.057143 109.714285c18.285714-14.628571 43.885714-14.628571 62.171429 0l73.142857-69.485714c-7.314286-10.971429-10.971429-21.942857-10.971429-32.914286 0-29.257143 25.6-54.857143 54.857143-54.857143s54.857143 25.6 54.857143 54.857143-32.914286 54.857143-62.171429 54.857143c-7.314286 0-18.285714-3.657143-25.6-7.314286l-73.142857 73.142858c3.657143 7.314286 7.314286 18.285714 7.314286 25.6 0 29.257143-25.6 54.857143-54.857143 54.857142s-54.857143-25.6-54.857143-54.857142c0-10.971429 3.657143-18.285714 7.314286-29.257143l-106.057143-109.714286c-7.314286 7.314286-18.285714 10.971429-29.257143 10.971429-10.971429 0-25.6-3.657143-32.914286-14.628572l-76.8 135.314286c10.971429 10.971429 18.285714 25.6 18.285715 40.228571 0 29.257143-25.6 54.857143-54.857143 54.857143s-54.857143-21.942857-54.857143-51.2 25.6-54.857143 54.857143-54.857143z m252.342857 109.714286H694.857143v-84.114286l36.571428-62.171428 87.771429 146.285714z" fill="#308FEF" p-id="3580"></path></svg>