<?xml version="1.0" standalone="no"?><!DOCTYPE svg PUBLIC "-//W3C//DTD SVG 1.1//EN" "http://www.w3.org/Graphics/SVG/1.1/DTD/svg11.dtd"><svg t="1744945505954" class="icon" viewBox="0 0 1024 1024" version="1.1" xmlns="http://www.w3.org/2000/svg" p-id="5115" xmlns:xlink="http://www.w3.org/1999/xlink" width="200" height="200"><path d="M673.760427 1022.037333l344.576-238.165333a13.056 13.056 0 0 0 0-21.674667L673.760427 523.946667a11.861333 11.861333 0 0 0-13.056-0.256 12.842667 12.842667 0 0 0-5.845334 12.16v169.216H363.403093s-157.141333 4.010667-196.821333-116.096A311.296 311.296 0 0 0 291.467093 809.386667c30.250667 20.992 65.877333 32 102.229334 31.488h259.242666v169.301333c0.256 4.992 2.986667 9.642667 7.210667 12.032 4.266667 2.389333 9.472 2.346667 13.653333-0.213333zM350.219093 2.304L5.771093 240.384a13.141333 13.141333 0 0 0 0 21.717333l344.448 238.122667a11.904 11.904 0 0 0 13.056 0.341333 12.842667 12.842667 0 0 0 5.888-12.16V319.189333h291.498667s157.056-3.84 196.821333 116.224a311.296 311.296 0 0 0-124.928-220.544 174.634667 174.634667 0 0 0-102.272-31.445333H369.376427V14.037333a12.842667 12.842667 0 0 0-5.930667-12.202666 11.861333 11.861333 0 0 0-13.184 0.384l-0.042667 0.042666z" fill="#DA4949" p-id="5116"></path></svg>